<?xml version="1.0" standalone="no"?>
<!DOCTYPE svg PUBLIC "-//W3C//DTD SVG 20010904//EN"
 "http://www.w3.org/TR/2001/REC-SVG-20010904/DTD/svg10.dtd">
<svg version="1.0" xmlns="http://www.w3.org/2000/svg"
 width="664.000000pt" height="664.000000pt" viewBox="0 0 664.000000 664.000000"
 preserveAspectRatio="xMidYMid meet">
<metadata>
Created by potrace 1.11, written by Peter Selinger 2001-2013
</metadata>
<g transform="translate(0.000000,664.000000) scale(0.100000,-0.100000)"
fill="#000000" stroke="none">
<path d="M3048 6564 c-2 -2 -35 -6 -74 -8 -38 -3 -91 -8 -119 -11 -67 -8 -236
-38 -282 -49 -13 -4 -32 -8 -43 -10 -106 -24 -362 -105 -445 -141 -16 -8 -64
-28 -105 -46 -150 -64 -510 -269 -510 -290 0 -5 -5 -9 -11 -9 -6 0 -23 -9 -37
-20 -103 -80 -163 -127 -202 -158 -48 -40 -312 -302 -345 -343 -11 -14 -47
-58 -81 -99 -76 -94 -194 -266 -266 -390 -60 -102 -170 -325 -183 -370 -1 -3
-8 -21 -17 -41 -9 -20 -28 -72 -42 -115 -15 -44 -29 -86 -32 -94 -3 -8 -5 -15
-5 -15 0 0 -7 -22 -15 -50 -9 -27 -25 -86 -35 -130 -11 -44 -22 -89 -24 -100
-3 -11 -7 -33 -10 -50 -3 -16 -7 -41 -10 -55 -8 -45 -15 -87 -20 -131 -3 -24
-7 -55 -10 -69 -22 -119 -22 -526 0 -690 3 -25 8 -61 10 -80 8 -64 15 -115 20
-130 2 -8 7 -31 10 -50 3 -19 11 -55 17 -80 6 -25 12 -54 14 -65 9 -49 45
-169 82 -275 46 -133 55 -155 122 -305 13 -27 22 -52 22 -55 0 -3 5 -12 12
-20 6 -8 18 -28 26 -45 51 -106 241 -405 261 -413 5 -2 9 -8 9 -13 0 -9 94
-128 154 -198 87 -98 315 -316 401 -383 17 -12 32 -26 33 -30 2 -5 10 -8 17
-8 7 0 15 -4 17 -8 2 -4 26 -23 53 -42 28 -19 52 -38 55 -41 19 -21 238 -152
365 -217 133 -69 377 -172 408 -172 8 0 17 -3 21 -8 4 -4 11 -7 14 -8 4 0 39
-10 78 -22 39 -12 79 -22 88 -22 9 0 16 -5 16 -11 0 -5 4 -8 8 -5 4 3 26 0 48
-5 21 -6 49 -12 61 -14 11 -1 29 -6 40 -9 10 -3 35 -8 57 -12 21 -3 48 -8 60
-10 22 -5 40 -7 166 -24 74 -10 287 -22 365 -22 70 1 289 12 310 16 11 2 51 7
88 11 37 3 76 8 86 10 10 2 34 6 52 9 19 3 68 12 109 21 41 9 84 18 95 21 110
22 364 105 463 150 29 13 55 24 58 24 7 0 230 112 279 140 22 13 54 31 70 41
17 11 41 24 55 31 14 7 27 15 30 18 9 10 110 80 115 80 3 0 11 5 18 10 7 6 64
51 127 102 140 111 405 374 478 473 4 6 18 24 32 41 14 16 34 43 45 58 11 16
30 41 43 56 12 15 22 31 22 34 0 4 18 31 40 61 22 30 40 57 40 60 0 4 13 25
28 48 35 52 115 198 110 202 -2 1 -25 13 -53 25 -61 27 -168 77 -293 137 -102
49 -109 48 -133 -10 -7 -18 -16 -34 -19 -37 -4 -3 -20 -30 -37 -60 -135 -247
-434 -591 -648 -745 -15 -11 -48 -36 -74 -55 -57 -44 -168 -117 -241 -159 -72
-41 -268 -136 -300 -146 -14 -4 -29 -11 -35 -15 -19 -14 -220 -79 -340 -109
-116 -29 -144 -35 -230 -47 -22 -3 -51 -8 -65 -10 -94 -18 -387 -23 -545 -11
-95 8 -126 12 -215 28 -30 6 -67 12 -82 14 -132 19 -555 159 -566 187 -2 4
-10 8 -18 8 -13 0 -91 39 -199 99 -50 28 -259 167 -277 183 -7 7 -40 33 -72
58 -65 48 -299 279 -356 350 -127 157 -276 379 -297 443 -3 9 -9 17 -14 17 -5
0 -9 4 -9 10 0 5 -14 38 -31 72 -100 204 -190 481 -224 688 -3 19 -8 46 -10
60 -6 27 -12 78 -22 180 -8 87 -7 387 1 480 10 101 13 125 15 125 1 0 4 16 6
35 5 51 12 83 40 210 18 78 48 183 68 235 6 17 12 35 13 40 1 6 18 49 37 96
139 341 333 635 583 883 80 79 181 170 216 194 13 9 25 18 28 22 14 16 89 70
98 70 6 0 12 4 14 8 3 9 123 92 132 92 3 0 29 15 58 34 131 83 473 227 600
251 10 2 22 6 26 9 5 3 19 7 33 9 13 3 42 10 64 16 22 5 58 13 80 16 22 4 51
8 65 11 14 3 45 7 70 9 25 3 56 7 70 10 70 15 334 21 470 10 109 -9 153 -13
200 -20 70 -10 229 -44 290 -61 30 -8 64 -17 74 -19 31 -7 90 -26 111 -35 11
-5 49 -20 85 -33 114 -42 249 -107 391 -189 66 -38 248 -165 321 -224 84 -68
306 -288 365 -361 65 -82 160 -215 212 -297 29 -47 57 -86 61 -86 8 0 187 92
335 172 39 21 82 43 97 49 19 7 25 15 21 27 -20 54 -241 386 -293 441 -15 15
-29 33 -31 39 -16 45 -367 396 -461 460 -13 9 -29 22 -36 29 -29 28 -212 154
-315 218 -60 36 -168 95 -240 129 -125 60 -330 146 -350 146 -5 0 -23 6 -40
14 -18 8 -41 16 -52 19 -11 3 -63 16 -115 30 -84 23 -216 52 -275 62 -61 10
-123 19 -145 21 -14 1 -45 5 -70 9 -49 7 -516 16 -522 9z"/>
<path d="M3207 5704 c-1 -1 -49 -5 -107 -8 -107 -7 -165 -13 -210 -22 -14 -2
-41 -7 -60 -10 -73 -12 -231 -55 -336 -92 -105 -37 -302 -124 -334 -147 -8 -5
-31 -19 -50 -29 -47 -25 -203 -130 -265 -178 -79 -62 -237 -208 -283 -263 -24
-27 -57 -66 -75 -86 -55 -63 -67 -79 -67 -89 0 -6 -4 -10 -10 -10 -5 0 -10 -7
-10 -15 0 -8 -4 -15 -8 -15 -18 0 -222 -345 -222 -374 0 -6 -6 -20 -13 -31
-28 -44 -98 -242 -131 -373 -33 -128 -42 -182 -62 -352 -9 -70 -9 -378 -1
-450 12 -102 17 -145 22 -170 3 -14 7 -36 10 -50 5 -25 11 -56 20 -95 8 -39
36 -140 42 -155 3 -8 7 -22 9 -31 2 -9 13 -37 24 -63 11 -26 20 -52 20 -57 0
-8 46 -111 93 -209 42 -86 192 -329 216 -350 3 -3 33 -38 65 -79 62 -77 213
-232 285 -291 24 -19 48 -40 54 -45 7 -6 28 -22 47 -35 19 -13 37 -27 40 -30
10 -13 129 -90 139 -90 5 0 11 -4 13 -9 4 -13 255 -140 343 -175 76 -30 244
-85 285 -92 14 -3 33 -7 42 -10 10 -3 28 -7 40 -10 13 -2 34 -6 48 -9 24 -5
55 -10 115 -20 169 -27 576 -23 680 8 11 3 38 8 60 12 22 3 56 10 75 15 19 5
46 11 60 14 48 9 220 65 292 96 40 16 78 30 84 30 7 0 14 3 16 8 2 4 41 26 88
49 160 80 316 183 450 297 43 37 212 206 260 261 87 98 199 262 277 406 l41
75 -101 53 c-173 89 -270 141 -283 152 -7 6 -19 12 -27 13 -8 1 -26 9 -40 19
-15 9 -28 17 -30 17 -6 0 -77 -120 -77 -130 0 -5 -3 -10 -8 -12 -4 -1 -23 -27
-41 -56 -19 -30 -39 -59 -45 -65 -6 -7 -24 -30 -40 -51 -33 -44 -189 -203
-250 -254 -21 -18 -84 -63 -140 -100 -247 -165 -514 -258 -826 -288 -127 -12
-231 -9 -420 11 -14 1 -52 8 -85 15 -33 7 -67 14 -75 15 -8 1 -22 4 -30 7 -8
3 -46 15 -85 27 -137 43 -279 109 -400 184 -54 34 -190 133 -215 157 -9 8 -41
38 -71 65 -126 117 -256 283 -328 420 -18 33 -36 67 -41 75 -8 15 -45 96 -60
135 -4 11 -12 31 -17 45 -26 64 -70 228 -88 328 -19 108 -27 369 -14 456 4 28
10 69 13 91 8 57 22 132 31 165 1 3 5 19 9 35 4 17 14 47 22 68 8 20 11 37 8
37 -4 0 -2 6 3 13 5 6 18 35 28 62 36 101 155 324 197 369 10 11 18 23 18 27
0 4 6 14 13 21 6 7 29 36 51 63 84 108 359 355 395 355 6 0 11 3 11 8 0 4 24
20 53 36 28 16 54 32 57 35 12 14 212 102 295 130 106 36 233 66 315 76 93 11
157 17 170 16 8 -1 24 -1 35 0 103 5 380 -18 380 -31 0 -1 11 -3 25 -6 14 -2
36 -7 50 -10 14 -4 32 -8 40 -9 24 -4 152 -45 185 -60 17 -7 53 -23 80 -36 28
-12 52 -23 55 -24 49 -13 244 -138 358 -230 75 -60 247 -246 287 -309 10 -17
22 -33 25 -36 3 -3 25 -35 49 -72 24 -38 45 -68 47 -68 2 0 37 17 76 37 40 21
75 38 78 38 11 2 294 145 302 153 4 4 -10 32 -32 62 -22 30 -40 60 -40 66 0 5
-8 19 -18 30 -9 10 -35 44 -57 74 -138 194 -386 430 -583 555 -138 88 -268
155 -409 213 -56 23 -106 42 -112 42 -5 0 -22 5 -38 12 -15 6 -32 12 -38 13
-5 2 -34 10 -63 18 -29 9 -53 16 -55 15 -1 0 -21 5 -44 11 -23 6 -45 11 -50
10 -4 -1 -19 1 -33 4 -14 4 -41 9 -60 12 -19 2 -46 7 -60 10 -34 7 -337 24
-343 19z"/>
<path d="M5013 352 c-22 -3 -22 -5 -22 -178 l1 -174 777 0 776 0 0 175 c0 112
-3 175 -10 176 -49 2 -1505 3 -1522 1z"/>
</g>
</svg>
