<?xml version="1.0" encoding="utf-8"?>
<!-- Generator: Adobe Illustrator 15.0.0, SVG Export Plug-In . SVG Version: 6.00 Build 0)  -->
<!DOCTYPE svg PUBLIC "-//W3C//DTD SVG 1.1//EN" "http://www.w3.org/Graphics/SVG/1.1/DTD/svg11.dtd">
<svg version="1.1" id="Layer_1" xmlns="http://www.w3.org/2000/svg" xmlns:xlink="http://www.w3.org/1999/xlink" x="0px" y="0px"
	 width="199.6px" height="77.9px" viewBox="0 0 199.6 77.9" style="enable-background:new 0 0 199.6 77.9;" xml:space="preserve">
<style type="text/css">
<![CDATA[
	.st0{fill:#004289;}
	.st1{fill:#DF006E;}
]]>
</style>
<g>
	<g>
		<path class="st1" d="M11.8,51.5c-2.3,0-4.3-0.4-6.1-1.2s-3.1-2-4-3.6c-1-1.6-1.4-3.5-1.4-5.6c0-2,0.4-3.8,1.2-5.4
			c0.8-1.6,2-2.9,3.5-3.8c1.5-0.9,3.3-1.4,5.3-1.4c1.9,0,3.5,0.4,4.9,1.2c1.4,0.8,2.5,1.9,3.3,3.4c0.8,1.5,1.2,3.2,1.2,5.3
			c0,0.9-0.1,1.6-0.2,2.3h-14c0.7,3,2.9,4.4,6.7,4.4c1.2,0,2.4-0.1,3.5-0.4s2.1-0.6,3.1-1.1l0.5,4.2c-0.9,0.5-2.1,0.9-3.4,1.2
			C14.7,51.4,13.3,51.5,11.8,51.5z M14.7,38.9c-0.1-1.4-0.6-2.4-1.3-3.2c-0.8-0.7-1.8-1.1-3.1-1.1c-1.2,0-2.3,0.4-3.1,1.1
			c-0.8,0.7-1.3,1.8-1.6,3.2H14.7z"/>
		<path class="st1" d="M31.9,51.5c-1.7,0-3.3-0.4-4.7-1.3c-1.4-0.9-2.5-2.1-3.3-3.7c-0.8-1.6-1.2-3.4-1.2-5.5c0-1.9,0.4-3.7,1.2-5.3
			s1.9-2.9,3.4-3.9c1.5-1,3.1-1.5,4.9-1.5c1.3,0,2.5,0.3,3.6,0.8c1.1,0.5,1.9,1.2,2.6,2.2V19.4h5.4v31.5h-5.2l-0.1-2.5
			c-0.7,1-1.6,1.8-2.7,2.4C34.6,51.3,33.3,51.5,31.9,51.5z M33.3,46.7c1.5,0,2.8-0.5,3.8-1.6c1-1.1,1.5-2.4,1.5-4.1
			c0-1.7-0.5-3-1.5-4.1c-1-1.1-2.2-1.6-3.8-1.6s-2.8,0.5-3.8,1.6c-1,1.1-1.5,2.4-1.5,4.1c0,1.7,0.5,3.1,1.5,4.1
			C30.5,46.2,31.8,46.7,33.3,46.7z"/>
		<path class="st1" d="M55.6,51.5c-2.3,0-4.1-0.7-5.4-2.2c-1.2-1.4-1.9-3.5-1.9-6.3v-12h5.4v11c0,3.1,1.2,4.6,3.5,4.6
			c1.3,0,2.3-0.4,3-1.3c0.7-0.9,1.1-2.1,1.1-3.7V31.1h5.4v19.8h-5.2l0-2.4c-0.6,1-1.4,1.7-2.4,2.3C58.1,51.3,56.9,51.5,55.6,51.5z"
			/>
	</g>
	<g>
		<polygon class="st1" points="82.4,20.2 95.2,7.6 95.2,20.2 		"/>
		<polygon class="st0" points="95.2,7.7 73.3,29.4 73.3,0.1 95.2,0.1 		"/>
	</g>
	<g>
		<path class="st0" d="M94.5,51.4c-2.3,0-4.2-0.8-5.6-2.5c-1.4-1.6-2.1-3.8-2.1-6.5c0-2.1,0.5-4,1.4-5.9c0.9-1.8,2.2-3.3,3.8-4.5
			c1.6-1.2,3.4-1.7,5.4-1.7c1.5,0,2.7,0.3,3.8,0.8c1.1,0.6,1.9,1.4,2.6,2.6l0.7-2.8h5.1l-3.8,19.8h-5.1l0.3-2.1
			c-0.8,0.9-1.7,1.5-2.8,2C96.9,51.1,95.7,51.4,94.5,51.4z M96.5,46.5c1.6,0,3-0.6,4.1-1.9c1.1-1.3,1.7-2.9,1.7-4.7
			c0-1.5-0.4-2.6-1.2-3.5c-0.8-0.8-1.9-1.3-3.2-1.3c-1.6,0-3,0.6-4.1,1.9c-1.1,1.3-1.7,2.9-1.7,4.7c0,1.5,0.4,2.6,1.2,3.5
			S95.2,46.5,96.5,46.5z"/>
		<path class="st0" d="M121.3,51.3c-3.2,0-5.7-0.8-7.5-2.5c-1.8-1.7-2.7-3.9-2.7-6.8c0-2.1,0.5-4,1.5-5.7c1-1.8,2.3-3.2,4.1-4.2
			c1.8-1.1,3.8-1.6,6-1.6c1.3,0,2.5,0.2,3.7,0.5s2.2,0.8,3,1.3l-1.1,4.6c-0.7-0.5-1.5-0.9-2.5-1.2s-1.9-0.4-2.8-0.4
			c-1.9,0-3.5,0.6-4.7,1.8c-1.2,1.2-1.8,2.7-1.8,4.6c0,1.5,0.5,2.7,1.6,3.6c1,0.9,2.4,1.3,4.1,1.3c1.6,0,3.2-0.4,4.7-1.2l-0.1,4.7
			c-0.5,0.3-1.4,0.6-2.5,0.9S122.3,51.3,121.3,51.3z"/>
		<path class="st0" d="M139.7,51.4c-4.4,0-6.7-2-6.7-6c0-0.9,0.1-1.8,0.3-2.6l1.4-7.3h-3.7l0.9-4.5h3.8l1.1-5.4h5.4l-1.1,5.4h5.6
			l-0.9,4.5h-5.6l-1.4,7.3c-0.1,0.7-0.2,1.2-0.2,1.5c0,0.8,0.2,1.4,0.6,1.8c0.4,0.4,1,0.5,1.9,0.5c1.3,0,2.5-0.2,3.5-0.7l0,4.5
			c-0.6,0.3-1.3,0.6-2.2,0.7C141.4,51.3,140.5,51.4,139.7,51.4z"/>
		<path class="st0" d="M151.2,30.9h5.4l-3.9,19.8h-5.4L151.2,30.9z M155,26.9c-0.9,0-1.6-0.3-2.1-0.8c-0.5-0.5-0.8-1.2-0.8-2.1
			c0-1,0.3-1.8,1-2.4c0.7-0.6,1.5-1,2.5-1c0.9,0,1.6,0.3,2.1,0.8c0.5,0.5,0.8,1.2,0.8,2.1c0,1-0.3,1.8-1,2.5
			C156.8,26.6,156,26.9,155,26.9z"/>
		<path class="st0" d="M168.9,51.4c-3.3,0-5.9-0.8-7.8-2.4c-1.9-1.6-2.8-3.9-2.8-6.8c0-2.2,0.5-4.1,1.4-5.9c0.9-1.8,2.3-3.2,4-4.3
			c1.7-1.1,3.7-1.6,5.9-1.6c2.6,0,4.6,0.7,6.2,2.2c1.5,1.4,2.3,3.4,2.3,5.9c0,1.2-0.2,2.6-0.6,4.2h-13.9c0.1,1.6,0.7,2.7,1.7,3.4
			c1,0.7,2.6,1,4.7,1c1,0,2-0.1,3-0.4c1.1-0.2,2-0.6,2.8-1l0,4.4c-0.8,0.4-1.7,0.8-3,1C171.5,51.2,170.2,51.4,168.9,51.4z M173,38.7
			c0-0.1,0-0.3,0-0.6c0-1.2-0.3-2.1-1-2.7c-0.7-0.6-1.6-1-2.8-1c-1.3,0-2.4,0.4-3.4,1.1c-1,0.8-1.7,1.8-2,3.1H173z"/>
		<path class="st0" d="M183.8,35.4h-3.4l0.8-4.5h3.5l0.5-2.8c1.2-6,4.4-9.1,9.7-9.1c0.8,0,1.7,0.1,2.5,0.3c0.8,0.2,1.5,0.5,2,0.8
			l-1.1,4.4c-1-0.5-2-0.8-3-0.8c-1.3,0-2.3,0.4-3.1,1.2c-0.8,0.8-1.3,2.1-1.7,3.9l-0.4,2.1h5.2l-0.9,4.5h-5.2l-3,15.3h-5.4
			L183.8,35.4z"/>
	</g>
	<g>
		<g>
			<path d="M0.4,61h4.7c1.3,0,2.4,0.3,3.1,0.8c0.7,0.6,1.1,1.4,1.1,2.4c0,0.6-0.1,1.1-0.4,1.6c-0.3,0.5-0.7,0.8-1.2,1.1
				C8.4,67.1,9,67.5,9.4,68c0.4,0.6,0.6,1.2,0.6,2c0,1.2-0.4,2.1-1.2,2.7c-0.8,0.6-1.9,0.9-3.4,0.9H0.4V61z M2.8,66.2h1.9
				c0.7,0,1.2-0.1,1.6-0.4s0.5-0.7,0.5-1.2c0-0.5-0.2-0.9-0.5-1.2S5.5,63,4.8,63h-2V66.2z M2.8,71.7h2.4c0.7,0,1.2-0.2,1.6-0.5
				c0.4-0.3,0.6-0.8,0.6-1.4c0-1.2-0.8-1.7-2.3-1.7H2.8V71.7z"/>
			<path d="M15.4,74c-0.8,0-1.6-0.2-2.3-0.6c-0.7-0.4-1.3-0.9-1.7-1.6s-0.6-1.5-0.6-2.4c0-0.8,0.2-1.6,0.6-2.3
				c0.4-0.7,0.9-1.2,1.6-1.7c0.7-0.4,1.5-0.6,2.4-0.6c0.8,0,1.6,0.2,2.3,0.6c0.7,0.4,1.3,0.9,1.7,1.6c0.4,0.7,0.6,1.5,0.6,2.4
				c0,0.8-0.2,1.6-0.6,2.3c-0.4,0.7-0.9,1.2-1.6,1.7S16.3,74,15.4,74z M15.4,71.9c0.7,0,1.2-0.2,1.6-0.7c0.4-0.5,0.6-1.1,0.6-1.8
				c0-0.7-0.2-1.3-0.6-1.8c-0.4-0.5-1-0.7-1.6-0.7s-1.2,0.2-1.6,0.7c-0.4,0.5-0.6,1-0.6,1.8c0,0.7,0.2,1.3,0.6,1.8
				C14.2,71.7,14.8,71.9,15.4,71.9z"/>
			<path d="M25.4,74c-0.8,0-1.6-0.2-2.3-0.6c-0.7-0.4-1.3-0.9-1.7-1.6s-0.6-1.5-0.6-2.4c0-0.8,0.2-1.6,0.6-2.3
				c0.4-0.7,0.9-1.2,1.6-1.7c0.7-0.4,1.5-0.6,2.4-0.6c0.8,0,1.6,0.2,2.3,0.6c0.7,0.4,1.3,0.9,1.7,1.6c0.4,0.7,0.6,1.5,0.6,2.4
				c0,0.8-0.2,1.6-0.6,2.3c-0.4,0.7-0.9,1.2-1.6,1.7S26.3,74,25.4,74z M25.4,71.9c0.7,0,1.2-0.2,1.6-0.7c0.4-0.5,0.6-1.1,0.6-1.8
				c0-0.7-0.2-1.3-0.6-1.8c-0.4-0.5-1-0.7-1.6-0.7s-1.2,0.2-1.6,0.7c-0.4,0.5-0.6,1-0.6,1.8c0,0.7,0.2,1.3,0.6,1.8
				C24.2,71.7,24.8,71.9,25.4,71.9z"/>
			<path d="M31.2,65.2h2.2l0,1.1c0.3-0.4,0.6-0.8,1-1c0.4-0.2,1-0.3,1.6-0.3c1.2,0,2.1,0.5,2.6,1.5c0.2-0.5,0.6-0.8,1.1-1.1
				c0.5-0.3,1-0.4,1.6-0.4c1,0,1.8,0.3,2.3,0.9s0.8,1.5,0.8,2.7v5.2h-2.3V69c0-0.7-0.1-1.2-0.4-1.5S41.3,67,40.7,67
				c-0.5,0-0.9,0.2-1.2,0.6c-0.3,0.4-0.4,0.9-0.4,1.6v4.6h-2.3V69c0-0.7-0.1-1.2-0.4-1.5S35.8,67,35.2,67s-0.9,0.2-1.2,0.6
				c-0.3,0.4-0.4,0.9-0.4,1.6v4.6h-2.3V65.2z"/>
		</g>
		<g>
			<path class="st0" d="M52.7,74c-0.5,0-1-0.1-1.4-0.3c-0.4-0.2-0.8-0.5-1-0.9l0,1h-2.8V60.1h3v5.7c0.3-0.3,0.6-0.6,1-0.8
				s0.9-0.3,1.4-0.3c0.7,0,1.4,0.2,2,0.6c0.6,0.4,1.1,0.9,1.4,1.6c0.3,0.7,0.5,1.5,0.5,2.4c0,0.9-0.2,1.6-0.5,2.3
				c-0.3,0.7-0.8,1.3-1.4,1.7C54.2,73.8,53.5,74,52.7,74z M52,71.3c0.5,0,0.9-0.2,1.3-0.5c0.3-0.4,0.5-0.8,0.5-1.4s-0.2-1-0.5-1.4
				s-0.8-0.5-1.3-0.5S51,67.7,50.7,68c-0.3,0.4-0.5,0.8-0.5,1.4s0.2,1,0.5,1.4C51,71.1,51.5,71.3,52,71.3z"/>
			<path class="st0" d="M62.9,74c-1.1,0-2-0.2-2.8-0.5c-0.8-0.4-1.4-0.9-1.8-1.6s-0.6-1.5-0.6-2.5c0-0.9,0.2-1.7,0.6-2.3
				c0.4-0.7,0.9-1.2,1.6-1.6s1.5-0.6,2.4-0.6c1.3,0,2.3,0.4,3.1,1.2c0.8,0.8,1.1,1.8,1.1,3.2c0,0.4,0,0.7-0.1,1h-5.7
				c0.2,0.5,0.5,0.9,0.9,1.1c0.4,0.2,1,0.4,1.8,0.4c0.5,0,1-0.1,1.5-0.2s0.9-0.2,1.3-0.4l0.3,2.3c-0.5,0.2-1,0.4-1.6,0.5
				C64.2,73.9,63.6,74,62.9,74z M63.7,68.4c0-0.4-0.2-0.8-0.5-1.1c-0.3-0.3-0.6-0.4-1-0.4c-0.9,0-1.4,0.5-1.6,1.4H63.7z"/>
			<path class="st0" d="M68,65.1h2.9l0,1.3c0.2-0.5,0.5-0.8,0.9-1.1c0.4-0.3,0.8-0.4,1.3-0.4c0.4,0,0.7,0.1,1,0.2l-0.2,2.9
				c-0.3-0.1-0.7-0.2-1.1-0.2c-0.6,0-1,0.2-1.3,0.6c-0.3,0.4-0.4,1-0.4,1.7v3.7h-3V65.1z"/>
			<path class="st0" d="M79.3,74c-0.9,0-1.7-0.2-2.4-0.6c-0.7-0.4-1.3-0.9-1.7-1.6c-0.4-0.7-0.6-1.5-0.6-2.4c0-0.8,0.2-1.6,0.6-2.3
				c0.4-0.7,1-1.3,1.7-1.7c0.7-0.4,1.6-0.6,2.5-0.6c0.9,0,1.7,0.2,2.4,0.6c0.7,0.4,1.3,0.9,1.7,1.6c0.4,0.7,0.6,1.5,0.6,2.4
				c0,0.8-0.2,1.6-0.6,2.3c-0.4,0.7-1,1.3-1.7,1.7C81.1,73.8,80.3,74,79.3,74z M79.3,71.3c0.5,0,0.9-0.2,1.3-0.5
				c0.3-0.4,0.5-0.8,0.5-1.4s-0.2-1-0.5-1.4c-0.3-0.4-0.7-0.5-1.3-0.5s-0.9,0.2-1.3,0.5s-0.5,0.8-0.5,1.4s0.2,1,0.5,1.4
				C78.4,71.1,78.8,71.3,79.3,71.3z"/>
			<path class="st0" d="M90.3,74c-1.1,0-2-0.2-2.8-0.5c-0.8-0.4-1.4-0.9-1.8-1.6s-0.6-1.5-0.6-2.5c0-0.9,0.2-1.7,0.6-2.3
				c0.4-0.7,0.9-1.2,1.6-1.6s1.5-0.6,2.4-0.6c1.3,0,2.3,0.4,3.1,1.2c0.8,0.8,1.1,1.8,1.1,3.2c0,0.4,0,0.7-0.1,1H88
				c0.2,0.5,0.5,0.9,0.9,1.1c0.4,0.2,1,0.4,1.8,0.4c0.5,0,1-0.1,1.5-0.2s0.9-0.2,1.3-0.4l0.3,2.3c-0.5,0.2-1,0.4-1.6,0.5
				C91.5,73.9,90.9,74,90.3,74z M91,68.4c0-0.4-0.2-0.8-0.5-1.1c-0.3-0.3-0.6-0.4-1-0.4c-0.9,0-1.4,0.5-1.6,1.4H91z"/>
			<path class="st0" d="M95.3,65.1h2.8l0,1c0.3-0.4,0.6-0.7,1-0.9c0.4-0.2,0.9-0.3,1.5-0.3c0.8,0,1.4,0.2,2,0.6
				c0.6,0.4,1.1,0.9,1.4,1.6c0.3,0.7,0.5,1.5,0.5,2.4c0,0.9-0.2,1.6-0.5,2.3c-0.3,0.7-0.8,1.3-1.4,1.7c-0.6,0.4-1.3,0.6-2.1,0.6
				c-0.5,0-0.9-0.1-1.3-0.3c-0.4-0.2-0.7-0.4-1-0.8v4.9h-3V65.1z M99.9,71.3c0.5,0,0.9-0.2,1.3-0.5c0.3-0.4,0.5-0.8,0.5-1.4
				s-0.2-1-0.5-1.4c-0.3-0.4-0.8-0.5-1.3-0.5S99,67.7,98.6,68c-0.3,0.4-0.5,0.8-0.5,1.4s0.2,1,0.5,1.4C99,71.1,99.4,71.3,99.9,71.3z
				"/>
			<path class="st0" d="M109.2,74c-0.7,0-1.3-0.1-2-0.2c-0.6-0.2-1.1-0.4-1.5-0.6l0.3-2.2c0.4,0.3,0.9,0.5,1.4,0.6
				c0.5,0.2,1,0.2,1.5,0.2c0.7,0,1.1-0.2,1.1-0.5c0-0.2-0.1-0.3-0.3-0.4s-0.5-0.2-1-0.4c-1.1-0.3-1.8-0.6-2.3-1.1
				c-0.5-0.4-0.7-1.1-0.7-1.8c0-0.9,0.3-1.5,1-2c0.7-0.5,1.6-0.7,2.7-0.7c0.6,0,1.2,0.1,1.7,0.2c0.6,0.1,1,0.3,1.4,0.5l-0.3,2.2
				c-0.4-0.2-0.8-0.4-1.3-0.5c-0.5-0.1-0.9-0.2-1.3-0.2c-0.6,0-0.9,0.2-0.9,0.5c0,0.2,0.1,0.3,0.3,0.4c0.2,0.1,0.5,0.2,1,0.3
				c1,0.3,1.8,0.6,2.3,1.1s0.7,1.1,0.7,1.9c0,0.9-0.3,1.5-1,2C111.4,73.8,110.4,74,109.2,74z"/>
			<path class="st0" d="M118.8,74c-0.9,0-1.7-0.2-2.4-0.6c-0.7-0.4-1.3-0.9-1.7-1.6c-0.4-0.7-0.6-1.5-0.6-2.4c0-0.8,0.2-1.6,0.6-2.3
				c0.4-0.7,1-1.3,1.7-1.7s1.6-0.6,2.5-0.6c0.9,0,1.7,0.2,2.4,0.6c0.7,0.4,1.3,0.9,1.7,1.6c0.4,0.7,0.6,1.5,0.6,2.4
				c0,0.8-0.2,1.6-0.6,2.3c-0.4,0.7-1,1.3-1.7,1.7C120.6,73.8,119.8,74,118.8,74z M118.8,71.3c0.5,0,0.9-0.2,1.3-0.5
				c0.3-0.4,0.5-0.8,0.5-1.4s-0.2-1-0.5-1.4c-0.3-0.4-0.7-0.5-1.3-0.5c-0.5,0-0.9,0.2-1.3,0.5s-0.5,0.8-0.5,1.4s0.2,1,0.5,1.4
				C117.9,71.1,118.3,71.3,118.8,71.3z"/>
			<path class="st0" d="M125,65.1h3l0,1.1c0.2-0.4,0.5-0.8,1-1c0.4-0.2,0.9-0.4,1.5-0.4c1,0,1.7,0.3,2.3,0.9s0.8,1.5,0.8,2.7v5.3h-3
				V69c0-1-0.4-1.5-1.2-1.5c-0.4,0-0.7,0.1-1,0.4s-0.3,0.7-0.3,1.2v4.6h-3V65.1z"/>
			<path class="st0" d="M138.7,74c-0.7,0-1.4-0.2-2-0.6c-0.6-0.4-1.1-0.9-1.4-1.6c-0.3-0.7-0.5-1.5-0.5-2.4c0-0.9,0.2-1.6,0.5-2.3
				c0.3-0.7,0.8-1.3,1.4-1.7c0.6-0.4,1.3-0.6,2.1-0.6c0.5,0,0.9,0.1,1.3,0.3c0.4,0.2,0.7,0.4,1,0.8v-5.7h3v13.6h-2.8l0-1
				c-0.3,0.4-0.6,0.7-1,0.9C139.8,73.9,139.3,74,138.7,74z M139.5,71.3c0.5,0,0.9-0.2,1.3-0.5c0.3-0.4,0.5-0.8,0.5-1.4
				s-0.2-1-0.5-1.4c-0.3-0.4-0.7-0.5-1.3-0.5c-0.5,0-0.9,0.2-1.3,0.5s-0.5,0.8-0.5,1.4s0.2,1,0.5,1.4
				C138.6,71.1,139,71.3,139.5,71.3z"/>
			<path class="st0" d="M150.7,74c-1.1,0-2-0.2-2.8-0.5c-0.8-0.4-1.4-0.9-1.8-1.6c-0.4-0.7-0.6-1.5-0.6-2.5c0-0.9,0.2-1.7,0.6-2.3
				c0.4-0.7,0.9-1.2,1.6-1.6s1.5-0.6,2.4-0.6c1.3,0,2.3,0.4,3.1,1.2c0.8,0.8,1.1,1.8,1.1,3.2c0,0.4,0,0.7-0.1,1h-5.7
				c0.2,0.5,0.5,0.9,0.9,1.1c0.4,0.2,1,0.4,1.8,0.4c0.5,0,1-0.1,1.5-0.2s0.9-0.2,1.3-0.4l0.3,2.3c-0.5,0.2-1,0.4-1.6,0.5
				C152,73.9,151.4,74,150.7,74z M151.5,68.4c0-0.4-0.2-0.8-0.5-1.1c-0.3-0.3-0.6-0.4-1-0.4c-0.8,0-1.4,0.5-1.6,1.4H151.5z"/>
			<path class="st0" d="M155.8,65.1h2.9l0,1.3c0.2-0.5,0.5-0.8,0.9-1.1s0.8-0.4,1.3-0.4c0.4,0,0.7,0.1,1,0.2l-0.2,2.9
				c-0.3-0.1-0.7-0.2-1.1-0.2c-0.6,0-1,0.2-1.3,0.6c-0.3,0.4-0.4,1-0.4,1.7v3.7h-3V65.1z"/>
			<path class="st0" d="M162.5,65.1h3.1l1.2,5.3l1.6-5.3h2.5l1.6,5.3l1.2-5.3h3.1l-2.8,8.7h-2.7l-1.7-5.1l-1.7,5.1h-2.6L162.5,65.1z
				"/>
			<path class="st0" d="M179.4,63.7c-0.5,0-0.9-0.2-1.2-0.5c-0.3-0.3-0.5-0.7-0.5-1.2c0-0.5,0.2-0.8,0.5-1.2
				c0.3-0.3,0.7-0.5,1.2-0.5c0.5,0,0.9,0.2,1.2,0.5c0.3,0.3,0.5,0.7,0.5,1.2c0,0.5-0.2,0.8-0.5,1.2
				C180.3,63.6,179.9,63.7,179.4,63.7z M177.9,65.1h3v8.7h-3V65.1z"/>
			<path class="st0" d="M182,78c-0.5,0-0.9,0-1.3-0.1s-0.7-0.2-0.9-0.3l0.3-2.5c0.4,0.2,0.9,0.3,1.3,0.3c0.5,0,0.8-0.1,1-0.4
				c0.2-0.2,0.3-0.6,0.3-1.2v-8.7h3v9c0,1.3-0.3,2.3-0.9,3C184.1,77.7,183.2,78,182,78z M184.2,63.7c-0.5,0-0.9-0.2-1.2-0.5
				c-0.3-0.3-0.5-0.7-0.5-1.2c0-0.5,0.2-0.8,0.5-1.2c0.3-0.3,0.7-0.5,1.2-0.5c0.5,0,0.9,0.2,1.2,0.5c0.3,0.3,0.5,0.7,0.5,1.2
				c0,0.5-0.2,0.8-0.5,1.2C185.1,63.6,184.7,63.7,184.2,63.7z"/>
			<path class="st0" d="M190.6,74c-0.7,0-1.3-0.1-2-0.2c-0.6-0.2-1.1-0.4-1.5-0.6l0.3-2.2c0.4,0.3,0.9,0.5,1.4,0.6
				c0.5,0.2,1,0.2,1.5,0.2c0.7,0,1.1-0.2,1.1-0.5c0-0.2-0.1-0.3-0.3-0.4s-0.5-0.2-1-0.4c-1.1-0.3-1.8-0.6-2.3-1.1
				c-0.5-0.4-0.7-1.1-0.7-1.8c0-0.9,0.3-1.5,1-2c0.7-0.5,1.6-0.7,2.7-0.7c0.6,0,1.2,0.1,1.7,0.2c0.6,0.1,1,0.3,1.4,0.5l-0.3,2.2
				c-0.4-0.2-0.8-0.4-1.3-0.5c-0.5-0.1-0.9-0.2-1.3-0.2c-0.6,0-0.9,0.2-0.9,0.5c0,0.2,0.1,0.3,0.3,0.4c0.2,0.1,0.5,0.2,1,0.3
				c1,0.3,1.8,0.6,2.3,1.1s0.7,1.1,0.7,1.9c0,0.9-0.3,1.5-1,2C192.8,73.8,191.8,74,190.6,74z"/>
		</g>
	</g>
</g>
</svg>
