<?xml version="1.0" encoding="utf-8"?>
<!-- Generator: Adobe Illustrator 22.0.1, SVG Export Plug-In . SVG Version: 6.00 Build 0)  -->
<svg version="1.1" id="Layer_1" xmlns="http://www.w3.org/2000/svg" xmlns:xlink="http://www.w3.org/1999/xlink" x="0px" y="0px"
	 viewBox="0 0 87.2 86.3" style="enable-background:new 0 0 87.2 86.3;" xml:space="preserve">
<style type="text/css">
	.st0{opacity:0.9;fill:#051633;}
	.st1{fill:#FFFFFF;}
</style>
<circle class="st0" cx="43.4" cy="43" r="42"/>
<path id="control-panel-1" class="st1" d="M56.3,55.4c0,2.3-1.7,4.2-3.9,4.2c-2.1,0-3.9-1.9-3.9-4.2s1.7-4.2,3.9-4.2
	C54.6,51.2,56.3,53.1,56.3,55.4z M29.4,49.1c-3.2,0-5.8,2.8-5.8,6.3c0,3.5,2.6,6.3,5.8,6.3h27c3.2,0,5.8-2.8,5.8-6.3
	c0-3.5-2.6-6.3-5.8-6.3H29.4z M66,55.4c0,5.8-4.3,10.5-9.6,10.5h-27c-5.3,0-9.6-4.7-9.6-10.5s4.3-10.5,9.6-10.5h27
	C61.7,44.9,66,49.6,66,55.4z M66,30.2c0,5.8-4.3,10.5-9.6,10.5h-27c-5.3,0-9.6-4.7-9.6-10.5s4.3-10.5,9.6-10.5h27
	C61.7,19.7,66,24.4,66,30.2z M37.1,30.2c0-2.3-1.7-4.2-3.9-4.2s-3.9,1.9-3.9,4.2s1.7,4.2,3.9,4.2S37.1,32.5,37.1,30.2z"/>
</svg>
