<?xml version="1.0" encoding="utf-8"?>
<!-- Generator: Adobe Illustrator 22.0.1, SVG Export Plug-In . SVG Version: 6.00 Build 0)  -->
<svg version="1.1" id="Layer_1" xmlns="http://www.w3.org/2000/svg" xmlns:xlink="http://www.w3.org/1999/xlink" x="0px" y="0px"
	 viewBox="0 0 86.4 86.1" style="enable-background:new 0 0 86.4 86.1;" xml:space="preserve">
<style type="text/css">
	.st0{opacity:0.9;fill:#051633;}
	.st1{fill:#FFFFFF;}
</style>
<circle class="st0" cx="43" cy="43.1" r="42"/>
<path id="paper-plane-6" class="st1" d="M23.4,61.9c0,1.6-1.3,2.9-2.9,2.9c-1.6,0-2.9-1.3-2.9-2.9s1.3-2.9,2.9-2.9
	C22.1,59,23.4,60.3,23.4,61.9z M49.7,25.7l-1.2-2.2c-1.4,0.9-2.6,2.1-3.6,3.4l2.2,1.2C47.9,27.2,48.7,26.4,49.7,25.7z M25.7,60.1
	c0.2,0.5,0.3,1.1,0.3,1.6c0,0.3,0,0.6-0.1,0.8c1.6-0.2,3-0.5,4.3-1l-0.7-2.3C28.3,59.6,27.1,59.9,25.7,60.1z M37,45.7l10.7-7.4
	l-8,8.5l8.3,7.4l6.2-22.6L29.6,43.9L37,45.7z M55.6,21c-1.8,0.3-3.4,0.8-4.8,1.4l1.2,2.2c1.2-0.5,2.5-0.9,4-1.1
	c-0.2-0.6-0.4-1.2-0.4-1.9C55.5,21.4,55.5,21.2,55.6,21z M61,18.5c-1.6,0-2.9,1.3-2.9,2.9s1.3,2.9,2.9,2.9c1.6,0,2.9-1.3,2.9-2.9
	S62.6,18.5,61,18.5z M35,55.8c-0.9,1-2,1.8-3.2,2.5l0.7,2.4c0.9-0.4,1.7-1,2.4-1.5V55.8z M38.8,56.6l3.3-5l-3.3-3V56.6z M45.8,30.3
	l-2.2-1.2c-0.7,1.3-1.2,2.8-1.7,4.3l3.1-1.5C45.3,31.3,45.5,30.8,45.8,30.3z"/>
</svg>
