<?xml version="1.0" encoding="utf-8"?>
<!-- Generator: Adobe Illustrator 22.0.1, SVG Export Plug-In . SVG Version: 6.00 Build 0)  -->
<svg version="1.1" id="Layer_1" xmlns="http://www.w3.org/2000/svg" xmlns:xlink="http://www.w3.org/1999/xlink" x="0px" y="0px"
	 viewBox="0 0 87.2 86.7" style="enable-background:new 0 0 87.2 86.7;" xml:space="preserve">
<style type="text/css">
	.st0{opacity:0.9;fill:#051633;}
	.st1{fill:#FFFFFF;}
</style>
<circle class="st0" cx="43.6" cy="43.4" r="42"/>
<path id="handshake-6" class="st1" d="M43.9,54.7c0.6,0.4,0.7,1.3,0.3,1.9l-1.6,2.1c-0.4,0.6-1.3,0.7-1.9,0.3
	c-0.6-0.4-0.7-1.3-0.3-1.9L42,55C42.4,54.4,43.3,54.2,43.9,54.7z M34.4,52.6l1.6-2.1c0.4-0.6,0.3-1.5-0.3-1.9
	c-0.6-0.4-1.5-0.3-1.9,0.3L32.2,51c-0.4,0.6-0.3,1.5,0.3,1.9C33.1,53.4,34,53.2,34.4,52.6z M39.2,53L37.7,55
	c-0.4,0.6-0.3,1.5,0.3,1.9c0.6,0.4,1.5,0.3,1.9-0.3l1.6-2.1c0.4-0.6,0.3-1.5-0.3-1.9C40.5,52.2,39.7,52.3,39.2,53z M46.1,57
	c-0.2,0.6-0.9,1.4-1.4,2c0.3,0.2,0.6,0.2,0.9,0.2c1,0,1.7-1,0.8-1.9L46.1,57z M36.5,50.9l-1.6,2.1c-0.4,0.6-0.3,1.4,0.3,1.9
	c0.6,0.4,1.5,0.3,1.9-0.3l1.6-2.1c0.4-0.6,0.3-1.5-0.3-1.9C37.8,50.2,36.9,50.3,36.5,50.9z M61,49.4l5.7-1.5l-3.1-11.7l-5.7,1.7
	L61,49.4z M56.3,39.1c-2.8,0.2-5.5-0.8-8.4-2.3c-0.6-0.3-1.4-0.6-2.1-0.6c-0.7,0-1.3,0.2-1.9,0.9c-2,2.2-3.1,4.2-5.5,5.6
	c-1.2,0.7,0.2,2.8,2.7,1.9c1.3-0.4,3-1.6,4.4-2.7c1.1-0.9,1.8-0.8,2.7,0.2c1.8,1.8,7.8,7.7,7.8,7.7c0.9-0.6,1.8-1,2.7-1.4L56.3,39.1
	z M29.3,37.9l-5.7-1.7l-3.1,11.7l5.7,1.5L29.3,37.9z M55.1,51.6c-0.9-1-7.2-7.2-8.3-8.3c-1.9,1.4-4.4,3.4-6.8,3.4
	c-1.8,0-3.4-1.1-3.8-2.6c-0.3-1.2,0.2-2.5,1.3-3.1c1.4-0.8,2.3-1.9,3.4-3.3c-3.4-2.1-6.3,1.3-9.9,1.4l-2.5,9c1.1,0.3,2,0.5,2.9,0.9
	l0.8-1.1c1.5-2.1,4.7-1.7,5.7,0.7c1.2,0.1,2.3,0.9,2.7,2c1.2,0.1,2.3,0.9,2.7,2c1.8,0.2,3.3,1.8,2.9,3.8l1.3,1.3
	c0.5,0.5,1.4,0.5,1.9,0c0.5-0.5,0.5-1.4,0-1.9L47,53.2c-0.1-0.1-0.1-0.4,0-0.5c0.1-0.1,0.3-0.1,0.5,0l2.9,2.9c0.5,0.5,1.4,0.5,1.9,0
	c0.5-0.5,0.5-1.4,0-1.9l-3.6-3.6c-0.1-0.1-0.1-0.4,0-0.5c0.1-0.1,0.3-0.1,0.5,0l3.9,3.9c0.5,0.5,1.4,0.5,1.9,0S55.6,52.1,55.1,51.6z
	 M40.9,24.6L39,24.9l1,5.7l1.9-0.3L40.9,24.6z M48.2,24.9l-1.9-0.3l-1,5.7l1.9,0.3L48.2,24.9z M55.1,27.3l-1.7-1l-2.9,5l1.7,1
	L55.1,27.3z M33.7,26.3l-1.7,1l2.9,5l1.7-1L33.7,26.3z"/>
</svg>
